<?xml version="1.0" encoding="UTF-8"?>
<svg version="1.1" xmlns="http://www.w3.org/2000/svg" width="510" height="510">
<path d="M0 0 C0.97622314 0.31227539 0.97622314 0.31227539 1.97216797 0.63085938 C37.17038908 12.20629258 70.96674689 33.82101335 98 59 C99.37075183 60.19240122 100.74557863 61.38013883 102.125 62.5625 C108.21327395 67.87902091 113.7633588 73.61876731 119.02734375 79.74609375 C120.96440025 81.95932465 122.95040666 84.12147968 124.95117188 86.27709961 C129.64764015 91.34158675 134.15762103 96.49584613 138.4765625 101.890625 C140.42483285 104.3175027 142.43388545 106.68545255 144.4609375 109.046875 C154.06130093 120.2987235 162.54135769 130.43055276 162 146 C160.88644983 159.97619088 149.59237195 170.78791655 141 181 C140.47535156 181.62519531 139.95070313 182.25039063 139.41015625 182.89453125 C133.30060291 190.15448395 127.02694286 197.24338293 120.578125 204.203125 C118.20716782 206.77525431 115.88129113 209.38093376 113.5625 212 C86.65245708 241.88405836 51.05459116 265.59145349 14 281 C13.2378418 281.32484375 12.47568359 281.6496875 11.69042969 281.984375 C-11.06247787 291.57696151 -35.59963671 293.95581047 -60 296 C-61.24185059 296.10803955 -61.24185059 296.10803955 -62.50878906 296.21826172 C-67.33543675 296.62461415 -72.15801717 296.86512291 -77 297 C-78.28753174 297.04084717 -78.28753174 297.04084717 -79.60107422 297.08251953 C-108.28822246 297.86880751 -137.89691657 295.91302553 -166 290 C-167.28777344 289.73832031 -168.57554687 289.47664063 -169.90234375 289.20703125 C-204.04134616 281.17210582 -235.6387827 261.35142225 -263 240 C-263.92167969 239.29230469 -264.84335937 238.58460938 -265.79296875 237.85546875 C-278.56075088 227.88888524 -290.68498583 216.40300586 -301.19921875 204.08203125 C-303.37324202 201.56846422 -305.62390488 199.13223771 -307.875 196.6875 C-311.90493275 192.26366405 -315.76170173 187.74409927 -319.5078125 183.078125 C-321.39339591 180.74922261 -323.30269363 178.45509091 -325.2421875 176.171875 C-334.95571422 164.65269056 -342.98950808 154.22709786 -341.80859375 138.44140625 C-339.76350183 124.6424176 -328.67147984 114.2206331 -320 104 C-318.9478301 102.75007287 -317.89574193 101.50007693 -316.84375 100.25 C-311.0074997 93.34958739 -304.9832046 86.64848201 -298.8203125 80.0390625 C-296.23804839 77.26772413 -293.70782308 74.45288793 -291.1875 71.625 C-284.82642586 64.55840422 -278.21946041 58.37219563 -270.77612305 52.43920898 C-269.38561198 51.31246496 -268.00981552 50.16755671 -266.63989258 49.01586914 C-259.77502274 43.28137685 -252.64391637 38.12149798 -245.1875 33.1875 C-244.31301712 32.60647018 -244.31301712 32.60647018 -243.42086792 32.01370239 C-204.41938348 6.17577334 -166.39168783 -5.97764026 -120 -10 C-119.16484863 -10.07347656 -118.32969727 -10.14695312 -117.46923828 -10.22265625 C-79.24093334 -13.43612432 -36.69062819 -11.82612118 0 0 Z M-190.125 74.3125 C-190.9288916 74.76036865 -191.7327832 75.2082373 -192.56103516 75.66967773 C-200.72634923 80.29604749 -208.39636521 85.51124243 -216 91 C-217.60488281 92.14275391 -217.60488281 92.14275391 -219.2421875 93.30859375 C-233.90196552 103.98928916 -247.33991468 117.12010764 -259 131 C-259.95530813 132.12665922 -260.91107906 133.25292611 -261.8671875 134.37890625 C-264.58390951 137.5810817 -267.2933943 140.78927063 -270 144 C-266.02400852 149.53023444 -261.76717581 154.58004398 -257.0625 159.5 C-255.82195702 160.811593 -254.58236209 162.1240834 -253.34375 163.4375 C-252.76109375 164.05496094 -252.1784375 164.67242187 -251.578125 165.30859375 C-249.69066851 167.33153598 -247.86568365 169.40174994 -246.0625 171.5 C-212.49386206 210.11220176 -163.27710015 230.88621379 -113.27339172 234.61473083 C-57.63700633 238.41752165 -7.51273546 229.80210702 38 196 C38.65033203 195.51789063 39.30066406 195.03578125 39.97070312 194.5390625 C58.61915451 180.57683003 77.00825752 163.48761373 90 144 C81.25128854 133.75441598 72.29835894 123.75003335 63 114 C62.51289551 113.48421387 62.02579102 112.96842773 61.52392578 112.43701172 C54.57398013 105.10271486 47.16336813 98.89764658 39 93 C37.4221875 91.85724609 37.4221875 91.85724609 35.8125 90.69140625 C27.791205 85.01948565 19.46594158 79.971744 11 75 C10.071875 74.41992188 9.14375 73.83984375 8.1875 73.2421875 C6.1294055 71.83540135 6.1294055 71.83540135 4 72 C5.65095131 77.11262341 7.62366971 82.04068445 9.68359375 87 C13.66619179 98.22089713 14.54434386 109.5290279 14.4375 121.3125 C14.43412628 122.03678192 14.43075256 122.76106384 14.42727661 123.5072937 C14.23989782 151.29644965 4.38258064 175.00267334 -15 195 C-15.5259375 195.59941406 -16.051875 196.19882812 -16.59375 196.81640625 C-32.23232403 214.01085882 -58.34829834 223.81287596 -81.13208008 225.12255859 C-107.77035074 226.09465074 -134.96628735 219.34349564 -155.390625 201.42578125 C-156.25171875 200.62527344 -157.1128125 199.82476562 -158 199 C-158.48275391 198.56349121 -158.96550781 198.12698242 -159.46289062 197.67724609 C-179.31025314 179.61971313 -191.0398171 154.72025489 -192.375 127.87890625 C-192.92242765 109.02498062 -189.99537286 91.69307029 -181.34765625 74.765625 C-179.85398388 72.21309971 -179.85398388 72.21309971 -180 70 C-183.70476538 70 -186.94319234 72.53938391 -190.125 74.3125 Z M-103.71484375 109.0078125 C-107.0936243 114.31592571 -108.42498281 118.62525789 -108 125 C-106.10246967 130.50283796 -104.0484518 135.26667452 -98.8359375 138.23046875 C-93.03308809 140.86241129 -88.18164108 141.84260455 -82 140 C-76.33697216 137.0595817 -72.42994514 132.92488778 -69.625 127.1875 C-68.46671279 121.28023525 -69.09314394 116.09577558 -71.9375 110.75 C-75.20212974 106.01865255 -79.66045194 103.83599602 -85 102 C-91.87326065 100.77263203 -99.16660416 103.68253881 -103.71484375 109.0078125 Z " fill="currentColor" transform="translate(345,116)"/>
</svg>
