<?xml version="1.0" encoding="UTF-8"?>
<svg version="1.1" xmlns="http://www.w3.org/2000/svg" width="510" height="510">
<path d="M0 0 C0 0.66 0 1.32 0 2 C-1.52367187 2.81791016 -1.52367187 2.81791016 -3.078125 3.65234375 C-34.27016363 20.63192695 -57.56090293 46.08598979 -69 80 C-79.64805153 116.3962793 -77.01197543 154.50362912 -58.90234375 188.03222656 C-40.44422093 220.678076 -10.423963 241.89727854 25.29296875 252.140625 C35.87639148 254.59410551 46.15953621 255.40569811 57 255.375 C57.72477539 255.37445618 58.44955078 255.37391235 59.19628906 255.37335205 C71.16872455 255.3321655 82.47240729 254.38846908 94 251 C95.07145264 250.69449219 95.07145264 250.69449219 96.16455078 250.3828125 C117.65788499 244.06210428 135.80910797 232.28983369 152 217 C152.64839844 216.39285156 153.29679687 215.78570312 153.96484375 215.16015625 C157.69510555 211.56049442 160.78601248 207.76649704 163.73828125 203.50390625 C164.15464844 203.00761719 164.57101562 202.51132812 165 202 C165.66 202 166.32 202 167 202 C165.79990124 251.15100617 150.06126231 296.08159042 117 333 C116.49791016 333.56380371 115.99582031 334.12760742 115.47851562 334.70849609 C113.9315239 336.4384288 112.37477093 338.15885966 110.8125 339.875 C110.34980713 340.38635498 109.88711426 340.89770996 109.41040039 341.42456055 C90.38309181 362.01493398 65.55715171 376.22871105 40 387 C39.28102539 387.30808594 38.56205078 387.61617188 37.82128906 387.93359375 C26.29804125 392.81508672 14.2839044 395.71078856 2 398 C1.00186279 398.18836426 0.00372559 398.37672852 -1.0246582 398.57080078 C-11.96199319 400.39057297 -22.87554611 400.39653994 -33.9375 400.375 C-34.93722839 400.37478851 -35.93695679 400.37457703 -36.96697998 400.37435913 C-51.74244671 400.34312605 -65.61916013 399.61859958 -80 396 C-81.57869712 395.65420255 -83.15813035 395.31174862 -84.73828125 394.97265625 C-127.67840781 385.25355119 -167.29418807 357.56843676 -194 323 C-194.42780762 322.4539209 -194.85561523 321.9078418 -195.29638672 321.34521484 C-212.15653726 299.71297992 -224.25524257 274.41770679 -230.3828125 247.67578125 C-230.7785942 245.95989224 -231.19361169 244.24826077 -231.6328125 242.54296875 C-238.57792276 215.33396083 -238.48961836 180.07025543 -231 153 C-230.57340088 151.42532959 -230.57340088 151.42532959 -230.13818359 149.81884766 C-226.44013049 136.45547219 -222.16952963 123.43195457 -216 111 C-215.66387695 110.31147949 -215.32775391 109.62295898 -214.98144531 108.91357422 C-201.6266356 81.79463538 -180.84600145 57.45636643 -157 39 C-156.47519043 38.58282715 -155.95038086 38.1656543 -155.40966797 37.73583984 C-139.6714685 25.26815556 -121.8091856 15.92420852 -103 9 C-101.17855469 8.31164062 -101.17855469 8.31164062 -99.3203125 7.609375 C-67.6907906 -3.68202421 -32.98766367 -3.88498247 0 0 Z " fill="currentColor" transform="translate(289,56)"/>
</svg>
